<?xml version="1.0" encoding="UTF-8"?>
<svg xmlns="http://www.w3.org/2000/svg" xmlns:xlink="http://www.w3.org/1999/xlink" width="381.6" height="381.6" viewBox="-10.8 -370.8 381.6 381.6">
<defs>
<style type="text/css">
.l5d0 {fill:none;stroke:#666666;stroke-width:3;stroke-dasharray:40,20;}
.l4d0 {fill:#33cc55;stroke:#117733;stroke-width:1;opacity:0.60;}
.l6d0 {fill:#ffee44;stroke:#aa9900;stroke-width:1;opacity:0.35;}
.l1d0 {fill:#3399ff;stroke:#1155cc;stroke-width:1;opacity:0.55;}
.l0d0 {fill:none;stroke:#888888;stroke-width:2;}
.l3d0 {fill:#ff8800;stroke:#cc5500;stroke-width:1;opacity:0.75;}
.l2d0 {fill:#ff3333;stroke:#aa0000;stroke-width:1;opacity:0.75;}
.l10d0 {fill:#ffffff;stroke:none;opacity:0.85;}
</style>
</defs>
<rect x="-10.8" y="-370.8" width="381.6" height="381.6" fill="#1a1a2e" stroke="none"/>
<g id="CSAC_V1" transform="scale(1 -1)">
<polygon id="0000016DD3054290" class="l5d0" points="0,0 360,0 360,12 0,12"/>
<polygon id="0000016DD3053650" class="l5d0" points="0,348 360,348 360,360 0,360"/>
<polygon id="0000016DD30538F0" class="l5d0" points="0,12 12,12 12,348 0,348"/>
<polygon id="0000016DD30536C0" class="l5d0" points="348,12 360,12 360,348 348,348"/>
<polygon id="0000016DD30533B0" class="l4d0" points="12,12 348,12 348,42 12,42"/>
<polygon id="0000016DD3053420" class="l4d0" points="12,318 348,318 348,348 12,348"/>
<polygon id="0000016DD3053DC0" class="l4d0" points="12,42 42,42 42,318 12,318"/>
<polygon id="0000016DD3053730" class="l4d0" points="318,42 348,42 348,318 318,318"/>
<polygon id="0000016DD30537A0" class="l6d0" points="72,72 288,72 288,288 72,288"/>
<polygon id="0000016DD3053D50" class="l1d0" points="270,180 269.765391,186.494198 269.062786,192.954538 267.89585,199.34734 266.270665,205.639273 264.195705,211.797535 261.681788,217.790019 258.742019,223.585484 255.391726,229.153714 251.648376,234.465679 247.531484,239.493686 243.062514,244.21152 238.264766,248.594585 233.163252,252.620029 227.784569,256.266867 222.15676,259.516084 216.309165,262.350741 210.27227,264.75606 204.07755,266.719499 197.757301,268.230824 191.344474,269.282153 184.872502,269.868007 178.375127,269.985331 171.886223,269.633513 165.43962,268.814387 159.068929,267.532224 152.807363,265.793709 146.687566,263.607905 140.741445,260.986208 135,257.942286 129.493164,254.49201 124.249647,250.653366 119.296787,246.446369 114.660406,241.892951 110.364674,237.016852 106.43199,231.843494 102.882854,226.399847 99.735772,220.714293 97.00715,214.816474 94.711215,208.737138 92.859935,202.507979 91.462964,196.161475 90.527584,189.730712 90.058671,183.249217 90.058671,176.750783 90.527584,170.269288 91.462964,163.838525 92.859935,157.492021 94.711215,151.262862 97.00715,145.183526 99.735772,139.285707 102.882854,133.600153 106.43199,128.156506 110.364674,122.983148 114.660406,118.107049 119.296787,113.553631 124.249647,109.346634 129.493164,105.50799 135,102.057714 140.741445,99.013792 146.687566,96.392095 152.807363,94.206291 159.068929,92.467776 165.43962,91.185613 171.886223,90.366487 178.375127,90.014669 184.872502,90.131993 191.344474,90.717847 197.757301,91.769176 204.07755,93.280501 210.27227,95.24394 216.309165,97.649259 222.15676,100.483916 227.784569,103.733133 233.163252,107.379971 238.264766,111.405415 243.062514,115.78848 247.531484,120.506314 251.648376,125.534321 255.391726,130.846286 258.742019,136.414516 261.681788,142.209981 264.195705,148.202465 266.270665,154.360727 267.89585,160.65266 269.062786,167.045462 269.765391,173.505802"/>
<polygon id="0000016DD3053960" class="l2d0" points="36,37.5 108,37.5 108,43.5 36,43.5"/>
<polygon id="0000016DD3053FF0" class="l2d0" points="102,37.5 108,37.5 108,52.5 102,52.5"/>
<polygon id="0000016DD30539D0" class="l2d0" points="36,46.5 108,46.5 108,52.5 36,52.5"/>
<polygon id="0000016DD3053B90" class="l2d0" points="36,46.5 42,46.5 42,61.5 36,61.5"/>
<polygon id="0000016DD3053C00" class="l2d0" points="36,55.5 108,55.5 108,61.5 36,61.5"/>
<polygon id="0000016DD3053C70" class="l2d0" points="102,55.5 108,55.5 108,70.5 102,70.5"/>
<polygon id="0000016DD3053E30" class="l2d0" points="36,64.5 108,64.5 108,70.5 36,70.5"/>
<polygon id="0000016DD3053CE0" class="l2d0" points="36,64.5 42,64.5 42,79.5 36,79.5"/>
<polygon id="0000016DD3054060" class="l2d0" points="36,73.5 108,73.5 108,79.5 36,79.5"/>
<polygon id="0000016DB24B56D0" class="l2d0" points="102,73.5 108,73.5 108,88.5 102,88.5"/>
<polygon id="0000016DD331D490" class="l2d0" points="36,82.5 108,82.5 108,88.5 36,88.5"/>
<polygon id="0000016DD331D500" class="l2d0" points="36,82.5 42,82.5 42,97.5 36,97.5"/>
<polygon id="0000016DD331D260" class="l2d0" points="36,91.5 108,91.5 108,97.5 36,97.5"/>
<polygon id="0000016DD331D2D0" class="l2d0" points="102,91.5 108,91.5 108,106.5 102,106.5"/>
<polygon id="0000016DD331CBD0" class="l2d0" points="36,100.5 108,100.5 108,106.5 36,106.5"/>
<polygon id="0000016DD331CA80" class="l2d0" points="36,30 54,30 54,48 36,48"/>
<polygon id="0000016DD331CEE0" class="l2d0" points="90,30 108,30 108,48 90,48"/>
<polygon id="0000016DD331CA10" class="l3d0" points="270,270.6 306,270.6 306,273 270,273"/>
<polygon id="0000016DD331D340" class="l3d0" points="303.6,270.6 306,270.6 306,276.6 303.6,276.6"/>
<polygon id="0000016DD331CAF0" class="l3d0" points="270,274.2 306,274.2 306,276.6 270,276.6"/>
<polygon id="0000016DD331D0A0" class="l3d0" points="270,274.2 272.4,274.2 272.4,280.2 270,280.2"/>
<polygon id="0000016DD331D030" class="l3d0" points="270,277.8 306,277.8 306,280.2 270,280.2"/>
<polygon id="0000016DD331D420" class="l3d0" points="303.6,277.8 306,277.8 306,283.8 303.6,283.8"/>
<polygon id="0000016DD331C8C0" class="l3d0" points="270,281.4 306,281.4 306,283.8 270,283.8"/>
<polygon id="0000016DD331C7E0" class="l3d0" points="270,281.4 272.4,281.4 272.4,287.4 270,287.4"/>
<polygon id="0000016DD331D5E0" class="l3d0" points="270,285 306,285 306,287.4 270,287.4"/>
<polygon id="0000016DD331CF50" class="l3d0" points="303.6,285 306,285 306,291 303.6,291"/>
<polygon id="0000016DD331D3B0" class="l3d0" points="270,288.6 306,288.6 306,291 270,291"/>
<polygon id="0000016DD331D110" class="l3d0" points="270,288.6 272.4,288.6 272.4,294.6 270,294.6"/>
<polygon id="0000016DD331D570" class="l3d0" points="270,292.2 306,292.2 306,294.6 270,294.6"/>
<polygon id="0000016DD331CFC0" class="l3d0" points="303.6,292.2 306,292.2 306,298.2 303.6,298.2"/>
<polygon id="0000016DD331C850" class="l3d0" points="270,295.8 306,295.8 306,298.2 270,298.2"/>
<polygon id="0000016DD331CB60" class="l3d0" points="270,295.8 272.4,295.8 272.4,301.8 270,301.8"/>
<polygon id="0000016DD331C930" class="l3d0" points="270,299.4 306,299.4 306,301.8 270,301.8"/>
<polygon id="0000016DD331D650" class="l3d0" points="303.6,299.4 306,299.4 306,305.4 303.6,305.4"/>
<polygon id="0000016DD331CC40" class="l3d0" points="270,303 306,303 306,305.4 270,305.4"/>
<polygon id="0000016DD331D6C0" class="l3d0" points="270,308.4 288,308.4 288,326.4 270,326.4"/>
<polygon id="0000016DD331C9A0" class="l3d0" points="288,308.4 306,308.4 306,326.4 288,326.4"/>
<polygon id="0000016DD331CCB0" class="l10d0" points="15,9 33,9 33,27 15,27"/>
<polygon id="0000016DD331CD20" class="l10d0" points="15.9,31.35 15.9,30.45 16.35,30.45 16.35,29.55 17.25,29.55 17.25,30.45 17.7,30.45 17.7,31.35 18.15,31.35 18.15,34.5 17.25,34.5 17.25,31.35 16.35,31.35 16.35,34.5 15.45,34.5 15.45,31.35"/>
<polygon id="0000016DD331CD90" class="l10d0" points="19.5,30 19.95,30 19.95,29.55 21.75,29.55 21.75,30 22.2,30 22.2,30.9 21.3,30.9 21.3,30 20.4,30 20.4,34.05 21.3,34.05 21.3,33.15 22.2,33.15 22.2,34.05 21.75,34.05 21.75,34.5 19.95,34.5 19.95,34.05 19.5,34.05"/>
<polygon id="0000016DD331D180" class="l10d0" points="23.55,30 24,30 24,29.55 25.8,29.55 25.8,30 26.25,30 26.25,30.9 25.35,30.9 25.35,30 24.45,30 24.45,34.05 25.35,34.05 25.35,33.15 26.25,33.15 26.25,34.05 25.8,34.05 25.8,34.5 24,34.5 24,34.05 23.55,34.05"/>
<polygon id="0000016DD331D1F0" class="l10d0" points="57,9 75,9 75,27 57,27"/>
<polygon id="0000016DD331CE00" class="l10d0" points="57.45,30 57.9,30 57.9,29.55 60.15,29.55 60.15,32.25 58.8,32.25 58.8,31.8 59.25,31.8 59.25,30 58.35,30 58.35,34.05 59.25,34.05 59.25,33.15 60.15,33.15 60.15,34.05 59.7,34.05 59.7,34.5 57.9,34.5 57.9,34.05 57.45,34.05"/>
<polygon id="0000016DD331CE70" class="l10d0" points="61.95,29.55 61.95,31.8 62.4,31.8 62.4,31.35 62.85,31.35 62.85,30.45 63.3,30.45 63.3,29.55 64.2,29.55 64.2,34.5 63.3,34.5 63.3,32.25 62.85,32.25 62.85,32.7 62.4,32.7 62.4,33.6 61.95,33.6 61.95,34.5 61.05,34.5 61.05,29.55"/>
<polygon id="0000016DD46A7960" class="l10d0" points="67.8,30.45 68.25,30.45 68.25,33.6 67.8,33.6 67.8,34.05 67.35,34.05 67.35,34.5 65.55,34.5 65.55,30 66.45,30 66.45,34.05 66.9,34.05 66.9,33.6 67.35,33.6 67.35,30.45 66.9,30.45 66.9,30 66.45,30 65.55,30 65.55,29.55 67.35,29.55 67.35,30 67.8,30"/>
<polygon id="0000016DD46A7490" class="l10d0" points="99,9 117,9 117,27 99,27"/>
<polygon id="0000016DD46A7B20" class="l10d0" points="100.35,29.55 100.35,31.8 101.25,31.8 101.25,29.55 102.15,29.55 102.15,34.5 101.25,34.5 101.25,32.25 100.35,32.25 100.35,34.5 99.45,34.5 99.45,29.55"/>
<polygon id="0000016DD46A7AB0" class="l10d0" points="105.3,29.55 105.3,34.05 106.2,34.05 106.2,34.5 103.5,34.5 103.5,34.05 104.4,34.05 104.4,29.55"/>
<polygon id="0000016DD46A70A0" class="l10d0" points="108.45,29.55 108.45,31.8 108.9,31.8 108.9,31.35 109.35,31.35 109.35,29.55 110.25,29.55 110.25,31.35 109.8,31.35 109.8,32.25 110.25,32.25 110.25,34.05 109.8,34.05 109.8,34.5 107.55,34.5 107.55,32.25 108.45,32.25 108.45,34.05 109.35,34.05 109.35,32.25 108.45,32.25 107.55,32.25 107.55,29.55"/>
<polygon id="0000016DD46A7D50" class="l10d0" points="111.6,32.25 111.6,31.8 112.5,31.8 112.5,30.45 113.4,30.45 113.4,31.8 114.3,31.8 114.3,32.25 113.4,32.25 113.4,33.6 112.5,33.6 112.5,32.25"/>
<polygon id="0000016DD46A71F0" class="l10d0" points="141,9 159,9 159,27 141,27"/>
<polygon id="0000016DD46A7420" class="l10d0" points="142.35,29.55 142.35,31.8 143.25,31.8 143.25,29.55 144.15,29.55 144.15,34.5 143.25,34.5 143.25,32.25 142.35,32.25 142.35,34.5 141.45,34.5 141.45,29.55"/>
<polygon id="0000016DD46A78F0" class="l10d0" points="147.3,29.55 147.3,34.05 148.2,34.05 148.2,34.5 145.5,34.5 145.5,34.05 146.4,34.05 146.4,29.55"/>
<polygon id="0000016DD46A79D0" class="l10d0" points="150.45,29.55 150.45,31.8 150.9,31.8 150.9,31.35 151.35,31.35 151.35,29.55 152.25,29.55 152.25,31.35 151.8,31.35 151.8,32.25 152.25,32.25 152.25,34.05 151.8,34.05 151.8,34.5 149.55,34.5 149.55,32.25 150.45,32.25 150.45,34.05 151.35,34.05 151.35,32.25 150.45,32.25 149.55,32.25 149.55,29.55"/>
<polygon id="0000016DD46A6FC0" class="l10d0" points="156.3,32.25 153.6,32.25 153.6,31.8 156.3,31.8"/>
<polygon id="0000016DD46A7880" class="l10d0" points="183,9 201,9 201,27 183,27"/>
<polygon id="0000016DD46A7260" class="l10d0" points="184.35,29.55 184.35,31.8 184.8,31.8 184.8,31.35 185.25,31.35 185.25,29.55 186.15,29.55 186.15,31.35 185.7,31.35 185.7,32.25 186.15,32.25 186.15,34.05 185.7,34.05 185.7,34.5 183.45,34.5 183.45,32.25 184.35,32.25 184.35,34.05 185.25,34.05 185.25,32.25 184.35,32.25 183.45,32.25 183.45,29.55"/>
<polygon id="0000016DD46A72D0" class="l10d0" points="189.3,29.55 189.3,34.05 190.2,34.05 190.2,34.5 187.5,34.5 187.5,34.05 188.4,34.05 188.4,29.55"/>
<polygon id="0000016DD46A77A0" class="l10d0" points="193.8,30.45 194.25,30.45 194.25,33.6 193.8,33.6 193.8,34.05 193.35,34.05 193.35,34.5 191.55,34.5 191.55,30 192.45,30 192.45,34.05 192.9,34.05 192.9,33.6 193.35,33.6 193.35,30.45 192.9,30.45 192.9,30 192.45,30 191.55,30 191.55,29.55 193.35,29.55 193.35,30 193.8,30"/>
<polygon id="0000016DD46A7030" class="l10d0" points="195.6,32.25 195.6,31.8 196.5,31.8 196.5,30.45 197.4,30.45 197.4,31.8 198.3,31.8 198.3,32.25 197.4,32.25 197.4,33.6 196.5,33.6 196.5,32.25"/>
<polygon id="0000016DD46A7B90" class="l10d0" points="225,9 243,9 243,27 225,27"/>
<polygon id="0000016DD46A7650" class="l10d0" points="226.35,29.55 226.35,31.8 226.8,31.8 226.8,31.35 227.25,31.35 227.25,29.55 228.15,29.55 228.15,31.35 227.7,31.35 227.7,32.25 228.15,32.25 228.15,34.05 227.7,34.05 227.7,34.5 225.45,34.5 225.45,32.25 226.35,32.25 226.35,34.05 227.25,34.05 227.25,32.25 226.35,32.25 225.45,32.25 225.45,29.55"/>
<polygon id="0000016DD46A7500" class="l10d0" points="231.3,29.55 231.3,34.05 232.2,34.05 232.2,34.5 229.5,34.5 229.5,34.05 230.4,34.05 230.4,29.55"/>
<polygon id="0000016DD46A7110" class="l10d0" points="235.8,30.45 236.25,30.45 236.25,33.6 235.8,33.6 235.8,34.05 235.35,34.05 235.35,34.5 233.55,34.5 233.55,30 234.45,30 234.45,34.05 234.9,34.05 234.9,33.6 235.35,33.6 235.35,30.45 234.9,30.45 234.9,30 234.45,30 233.55,30 233.55,29.55 235.35,29.55 235.35,30 235.8,30"/>
<polygon id="0000016DD46A7C70" class="l10d0" points="240.3,32.25 237.6,32.25 237.6,31.8 240.3,31.8"/>
<polygon id="0000016DD46A7810" class="l10d0" points="267,9 285,9 285,27 267,27"/>
<polygon id="0000016DD46A7340" class="l10d0" points="267.9,30 267.9,29.55 269.7,29.55 269.7,30 270.15,30 270.15,31.35 269.7,31.35 269.7,31.8 269.25,31.8 269.25,32.25 268.8,32.25 268.8,32.7 268.35,32.7 268.35,34.05 269.25,34.05 269.25,33.15 270.15,33.15 270.15,34.05 269.7,34.05 269.7,34.5 267.9,34.5 267.9,34.05 267.45,34.05 267.45,32.7 267.9,32.7 267.9,32.25 268.35,32.25 268.35,31.8 268.8,31.8 268.8,31.35 269.25,31.35 269.25,30 268.35,30 268.35,30.9 267.45,30.9 267.45,30"/>
<polygon id="0000016DD46A7570" class="l10d0" points="272.4,29.55 272.4,31.8 273.75,31.8 273.75,32.25 274.2,32.25 274.2,34.05 273.75,34.05 273.75,34.5 271.5,34.5 271.5,32.25 272.4,32.25 272.4,34.05 273.3,34.05 273.3,32.25 272.4,32.25 271.5,32.25 271.5,29.55"/>
<polygon id="0000016DD46A7A40" class="l10d0" points="275.55,30 275.55,29.55 278.25,29.55 278.25,30 277.35,30 277.35,34.05 278.25,34.05 278.25,34.5 275.55,34.5 275.55,34.05 276.45,34.05 276.45,30"/>
<polygon id="0000016DD46A7CE0" class="l10d0" points="282.75,28.65 279.15,28.65 279.15,28.2 282.75,28.2"/>
<polygon id="0000016DD46A73B0" class="l10d0" points="283.65,30 284.1,30 284.1,29.55 285.9,29.55 285.9,30 286.35,30 286.35,30.9 285.45,30.9 285.45,30 284.55,30 284.55,34.05 285.45,34.05 285.45,33.15 286.35,33.15 286.35,34.05 285.9,34.05 285.9,34.5 284.1,34.5 284.1,34.05 283.65,34.05"/>
<polygon id="0000016DD46A7C00" class="l10d0" points="290.4,29.55 290.4,30 288.6,30 288.6,34.5 287.7,34.5 287.7,29.55"/>
<polygon id="0000016DD46A7DC0" class="l10d0" points="292.2,29.55 292.2,31.8 292.65,31.8 292.65,31.35 293.1,31.35 293.1,30.45 293.55,30.45 293.55,29.55 294.45,29.55 294.45,30.45 294,30.45 294,31.35 293.55,31.35 293.55,31.8 293.1,31.8 293.1,32.25 293.55,32.25 293.55,32.7 294,32.7 294,33.6 294.45,33.6 294.45,34.5 293.55,34.5 293.55,33.6 293.1,33.6 293.1,32.7 292.65,32.7 292.65,32.25 292.2,32.25 292.2,34.5 291.3,34.5 291.3,29.55"/>
<polygon id="0000016DD46A7180" class="l10d0" points="309,9 327,9 327,27 309,27"/>
<polygon id="0000016DD46A7E30" class="l10d0" points="309.9,30 309.9,29.55 311.7,29.55 311.7,30 312.15,30 312.15,31.35 311.7,31.35 311.7,31.8 311.25,31.8 311.25,32.25 310.8,32.25 310.8,32.7 310.35,32.7 310.35,34.05 311.25,34.05 311.25,33.15 312.15,33.15 312.15,34.05 311.7,34.05 311.7,34.5 309.9,34.5 309.9,34.05 309.45,34.05 309.45,32.7 309.9,32.7 309.9,32.25 310.35,32.25 310.35,31.8 310.8,31.8 310.8,31.35 311.25,31.35 311.25,30 310.35,30 310.35,30.9 309.45,30.9 309.45,30"/>
<polygon id="0000016DD46A75E0" class="l10d0" points="314.4,29.55 314.4,31.8 315.75,31.8 315.75,32.25 316.2,32.25 316.2,34.05 315.75,34.05 315.75,34.5 313.5,34.5 313.5,32.25 314.4,32.25 314.4,34.05 315.3,34.05 315.3,32.25 314.4,32.25 313.5,32.25 313.5,29.55"/>
<polygon id="0000016DD46A76C0" class="l10d0" points="317.55,30 317.55,29.55 320.25,29.55 320.25,30 319.35,30 319.35,34.05 320.25,34.05 320.25,34.5 317.55,34.5 317.55,34.05 318.45,34.05 318.45,30"/>
<polygon id="0000016DD46A7730" class="l10d0" points="324.75,28.65 321.15,28.65 321.15,28.2 324.75,28.2"/>
<polygon id="0000016DD46A7FD0" class="l10d0" points="327.9,30.45 328.35,30.45 328.35,33.6 327.9,33.6 327.9,34.05 327.45,34.05 327.45,34.5 325.65,34.5 325.65,30 326.55,30 326.55,34.05 327,34.05 327,33.6 327.45,33.6 327.45,30.45 327,30.45 327,30 326.55,30 325.65,30 325.65,29.55 327.45,29.55 327.45,30 327.9,30"/>
<polygon id="0000016DD46A8190" class="l10d0" points="330.6,29.55 330.6,31.8 331.5,31.8 331.5,29.55 332.4,29.55 332.4,33.6 331.95,33.6 331.95,34.05 331.5,34.05 331.5,34.5 330.6,34.5 330.6,34.05 330.15,34.05 330.15,33.6 329.7,33.6 329.7,32.25 330.6,32.25 330.6,33.6 331.5,33.6 331.5,32.25 330.6,32.25 329.7,32.25 329.7,29.55"/>
<polygon id="0000016DD46A80B0" class="l10d0" points="335.55,29.55 335.55,34.05 336.45,34.05 336.45,34.5 333.75,34.5 333.75,34.05 334.65,34.05 334.65,29.55"/>
<polygon id="0000016DD46A89E0" class="l10d0" points="338.7,29.55 338.7,31.8 339.6,31.8 339.6,29.55 340.5,29.55 340.5,33.6 340.05,33.6 340.05,34.05 339.6,34.05 339.6,34.5 338.7,34.5 338.7,34.05 338.25,34.05 338.25,33.6 337.8,33.6 337.8,32.25 338.7,32.25 338.7,33.6 339.6,33.6 339.6,32.25 338.7,32.25 337.8,32.25 337.8,29.55"/>
<polygon id="0000016DD46A8BA0" class="l0d0" points="0,0 360,0 360,360 0,360"/>
<polygon id="0000016DD46A8B30" class="l10d0" points="108.6,340.8 109.2,340.8 109.2,340.2 111.6,340.2 111.6,340.8 112.2,340.8 112.2,342 111,342 111,340.8 109.8,340.8 109.8,346.2 111,346.2 111,345 112.2,345 112.2,346.2 111.6,346.2 111.6,346.8 109.2,346.8 109.2,346.2 108.6,346.2"/>
<polygon id="0000016DD46A83C0" class="l10d0" points="114.6,340.8 114.6,340.2 117,340.2 117,340.8 117.6,340.8 117.6,342.6 117,342.6 117,343.2 116.4,343.2 116.4,343.8 115.8,343.8 115.8,344.4 115.2,344.4 115.2,346.2 116.4,346.2 116.4,345 117.6,345 117.6,346.2 117,346.2 117,346.8 114.6,346.8 114.6,346.2 114,346.2 114,344.4 114.6,344.4 114.6,343.8 115.2,343.8 115.2,343.2 115.8,343.2 115.8,342.6 116.4,342.6 116.4,340.8 115.2,340.8 115.2,342 114,342 114,340.8"/>
<polygon id="0000016DD46A8D60" class="l10d0" points="120.6,340.2 120.6,343.2 121.8,343.2 121.8,340.2 123,340.2 123,345.6 122.4,345.6 122.4,346.2 121.8,346.2 121.8,346.8 120.6,346.8 120.6,346.2 120,346.2 120,345.6 119.4,345.6 119.4,343.8 120.6,343.8 120.6,345.6 121.8,345.6 121.8,343.8 120.6,343.8 119.4,343.8 119.4,340.2"/>
<polygon id="0000016DD46A86D0" class="l10d0" points="124.8,340.8 125.4,340.8 125.4,340.2 127.8,340.2 127.8,340.8 128.4,340.8 128.4,342 127.2,342 127.2,340.8 126,340.8 126,346.2 127.2,346.2 127.2,345 128.4,345 128.4,346.2 127.8,346.2 127.8,346.8 125.4,346.8 125.4,346.2 124.8,346.2"/>
<polygon id="0000016DD46A8740" class="l10d0" points="134.4,339 129.6,339 129.6,338.4 134.4,338.4"/>
<polygon id="0000016DD46A8120" class="l10d0" points="136.2,342.6 136.2,341.4 136.8,341.4 136.8,340.2 138,340.2 138,341.4 138.6,341.4 138.6,342.6 139.2,342.6 139.2,346.8 138,346.8 138,342.6 136.8,342.6 136.8,346.8 135.6,346.8 135.6,342.6"/>
<polygon id="0000016DD46A8890" class="l10d0" points="141.6,345.6 141,345.6 141,345 142.2,345 142.2,340.8 141,340.8 141,340.2 144.6,340.2 144.6,340.8 143.4,340.8 143.4,346.8 142.2,346.8 142.2,346.2 141.6,346.2"/>
<polygon id="0000016DD46A87B0" class="l10d0" points="157.8,340.8 157.8,340.2 160.2,340.2 160.2,340.8 160.8,340.8 160.8,343.2 160.2,343.2 160.2,343.8 160.8,343.8 160.8,346.2 160.2,346.2 160.2,346.8 157.8,346.8 157.8,346.2 157.2,346.2 157.2,345 158.4,345 158.4,346.2 159.6,346.2 159.6,343.8 158.4,343.8 158.4,343.2 159.6,343.2 159.6,340.8 158.4,340.8 158.4,342 157.2,342 157.2,340.8"/>
<polygon id="0000016DD46A8CF0" class="l10d0" points="162.6,343.2 162.6,342.6 163.2,342.6 163.2,342 162.6,342 162.6,341.4 162,341.4 162,340.2 163.2,340.2 163.2,341.4 163.8,341.4 163.8,342 164.4,342 164.4,341.4 165,341.4 165,340.2 166.2,340.2 166.2,341.4 165.6,341.4 165.6,342 165,342 165,342.6 165.6,342.6 165.6,343.2 166.2,343.2 166.2,344.4 165,344.4 165,343.2 164.4,343.2 164.4,342.6 163.8,342.6 163.8,343.2 163.2,343.2 163.2,344.4 162,344.4 162,343.2"/>
<polygon id="0000016DD46A8200" class="l10d0" points="168.6,340.8 168.6,340.2 171,340.2 171,340.8 171.6,340.8 171.6,343.2 171,343.2 171,343.8 171.6,343.8 171.6,346.2 171,346.2 171,346.8 168.6,346.8 168.6,346.2 168,346.2 168,345 169.2,345 169.2,346.2 170.4,346.2 170.4,343.8 169.2,343.8 169.2,343.2 170.4,343.2 170.4,340.8 169.2,340.8 169.2,342 168,342 168,340.8"/>
<polygon id="0000016DD46A8270" class="l10d0" points="174,340.2 174,343.2 174.6,343.2 174.6,340.8 175.2,340.8 175.2,343.2 175.8,343.2 175.8,340.2 177,340.2 177,343.8 176.4,343.8 176.4,344.4 175.2,344.4 175.2,343.8 174,343.8 174,344.4 172.8,344.4 172.8,340.2"/>
<polygon id="0000016DD46A8820" class="l10d0" points="179.4,340.2 179.4,343.2 180,343.2 180,340.8 180.6,340.8 180.6,343.2 181.2,343.2 181.2,340.2 182.4,340.2 182.4,343.8 181.8,343.8 181.8,344.4 180.6,344.4 180.6,343.8 179.4,343.8 179.4,344.4 178.2,344.4 178.2,340.2"/>
<polygon id="0000016DD46A8A50" class="l10d0" points="126.375,175.5 126.75,175.5 126.75,175.125 128.25,175.125 128.25,175.5 128.625,175.5 128.625,176.25 127.875,176.25 127.875,175.5 127.125,175.5 127.125,178.875 127.875,178.875 127.875,178.125 128.625,178.125 128.625,178.875 128.25,178.875 128.25,179.25 126.75,179.25 126.75,178.875 126.375,178.875"/>
<polygon id="0000016DD46A8040" class="l10d0" points="130.5,175.125 130.5,177 131.25,177 131.25,175.125 132,175.125 132,178.5 131.625,178.5 131.625,178.875 131.25,178.875 131.25,179.25 130.5,179.25 130.5,178.875 130.125,178.875 130.125,178.5 129.75,178.5 129.75,177.375 130.5,177.375 130.5,178.5 131.25,178.5 131.25,177.375 130.5,177.375 129.75,177.375 129.75,175.125"/>
<polygon id="0000016DD46A8DD0" class="l10d0" points="133.5,176.625 133.5,175.875 133.875,175.875 133.875,175.125 134.625,175.125 134.625,175.875 135,175.875 135,176.625 135.375,176.625 135.375,179.25 134.625,179.25 134.625,176.625 133.875,176.625 133.875,179.25 133.125,179.25 133.125,176.625"/>
<polygon id="0000016DD46A8660" class="l10d0" points="136.5,175.5 136.5,175.125 138.75,175.125 138.75,175.5 138,175.5 138,178.875 138.75,178.875 138.75,179.25 136.5,179.25 136.5,178.875 137.25,178.875 137.25,175.5"/>
<polygon id="0000016DD46A82E0" class="l10d0" points="141.375,175.125 141.375,178.875 142.125,178.875 142.125,179.25 139.875,179.25 139.875,178.875 140.625,178.875 140.625,175.125"/>
<polygon id="0000016DD46A8580" class="l10d0" points="143.25,178.5 143.25,177.75 143.625,177.75 143.625,177.375 144,177.375 144,175.125 144.75,175.125 144.75,177.375 145.125,177.375 145.125,177.75 145.5,177.75 145.5,178.5 145.875,178.5 145.875,179.25 145.125,179.25 145.125,178.5 144.75,178.5 144.75,177.75 144,177.75 144,178.5 143.625,178.5 143.625,179.25 142.875,179.25 142.875,178.5"/>
<polygon id="0000016DD46A8350" class="l10d0" points="150.375,178.5 150,178.5 150,178.125 150.75,178.125 150.75,175.5 150,175.5 150,175.125 152.25,175.125 152.25,175.5 151.5,175.5 151.5,179.25 150.75,179.25 150.75,178.875 150.375,178.875"/>
<polygon id="0000016DD46A8E40" class="l10d0" points="155.25,175.875 155.625,175.875 155.625,178.5 155.25,178.5 155.25,178.875 154.875,178.875 154.875,179.25 153.75,179.25 153.75,178.875 153.375,178.875 153.375,178.5 153,178.5 153,175.875 153.75,175.875 153.75,176.625 154.125,176.625 154.125,177 153.75,177 153.75,178.5 154.125,178.5 154.125,178.875 154.5,178.875 154.5,178.5 154.875,178.5 154.875,177.75 154.5,177.75 154.5,177.375 154.875,177.375 154.875,175.875 154.5,175.875 154.5,175.5 154.125,175.5 154.125,175.875 153.75,175.875 153,175.875 153.375,175.875 153.375,175.5 153.75,175.5 153.75,175.125 154.875,175.125 154.875,175.5 155.25,175.5"/>
<polygon id="0000016DD46A8AC0" class="l10d0" points="154.5,177.375 154.125,177.375 154.125,177 154.5,177"/>
<polygon id="0000016DD46A8510" class="l10d0" points="158.625,175.875 159,175.875 159,178.5 158.625,178.5 158.625,178.875 158.25,178.875 158.25,179.25 157.125,179.25 157.125,178.875 156.75,178.875 156.75,178.5 156.375,178.5 156.375,175.875 157.125,175.875 157.125,176.625 157.5,176.625 157.5,177 157.125,177 157.125,178.5 157.5,178.5 157.5,178.875 157.875,178.875 157.875,178.5 158.25,178.5 158.25,177.75 157.875,177.75 157.875,177.375 158.25,177.375 158.25,175.875 157.875,175.875 157.875,175.5 157.5,175.5 157.5,175.875 157.125,175.875 156.375,175.875 156.75,175.875 156.75,175.5 157.125,175.5 157.125,175.125 158.25,175.125 158.25,175.5 158.625,175.5"/>
<polygon id="0000016DD46A8430" class="l10d0" points="157.875,177.375 157.5,177.375 157.5,177 157.875,177"/>
<polygon id="0000016DD46A84A0" class="l10d0" points="162,175.875 162.375,175.875 162.375,178.5 162,178.5 162,178.875 161.625,178.875 161.625,179.25 160.5,179.25 160.5,178.875 160.125,178.875 160.125,178.5 159.75,178.5 159.75,175.875 160.5,175.875 160.5,176.625 160.875,176.625 160.875,177 160.5,177 160.5,178.5 160.875,178.5 160.875,178.875 161.25,178.875 161.25,178.5 161.625,178.5 161.625,177.75 161.25,177.75 161.25,177.375 161.625,177.375 161.625,175.875 161.25,175.875 161.25,175.5 160.875,175.5 160.875,175.875 160.5,175.875 159.75,175.875 160.125,175.875 160.125,175.5 160.5,175.5 160.5,175.125 161.625,175.125 161.625,175.5 162,175.5"/>
<polygon id="0000016DD46A85F0" class="l10d0" points="161.25,177.375 160.875,177.375 160.875,177 161.25,177"/>
<polygon id="0000016DD46A8900" class="l10d0" points="163.875,175.5 163.875,175.125 165.75,175.125 165.75,177.75 165,177.75 165,175.5 164.25,175.5 164.25,177.75 163.5,177.75 163.5,175.5"/>
<polygon id="0000016DD46A8970" class="l10d0" points="167.25,175.125 167.25,177 167.625,177 167.625,175.5 168,175.5 168,177 168.375,177 168.375,175.125 169.125,175.125 169.125,177.375 168.75,177.375 168.75,177.75 168,177.75 168,177.375 167.25,177.375 167.25,177.75 166.5,177.75 166.5,175.125"/>
<polygon id="0000016DD46A8C10" class="l10d0" points="175.5,175.875 175.875,175.875 175.875,178.5 175.5,178.5 175.5,178.875 175.125,178.875 175.125,179.25 173.625,179.25 173.625,175.5 174.375,175.5 174.375,178.875 174.75,178.875 174.75,178.5 175.125,178.5 175.125,175.875 174.75,175.875 174.75,175.5 174.375,175.5 173.625,175.5 173.625,175.125 175.125,175.125 175.125,175.5 175.5,175.5"/>
<polygon id="0000016DD46A8C80" class="l10d0" points="177.75,175.125 177.75,177 178.125,177 178.125,176.625 178.5,176.625 178.5,175.125 179.25,175.125 179.25,176.625 178.875,176.625 178.875,177.375 179.25,177.375 179.25,178.875 178.875,178.875 178.875,179.25 177,179.25 177,177.375 177.75,177.375 177.75,178.875 178.5,178.875 178.5,177.375 177.75,177.375 177,177.375 177,175.125"/>
<polygon id="0000016DD46A8EB0" class="l10d0" points="180.375,175.5 180.375,175.125 182.625,175.125 182.625,175.5 181.875,175.5 181.875,178.875 182.625,178.875 182.625,179.25 180.375,179.25 180.375,178.875 181.125,178.875 181.125,175.5"/>
<polygon id="0000016DD46AA4C0" class="l10d0" points="186,175.125 186,175.5 184.5,175.5 184.5,177 185.625,177 185.625,177.375 184.5,177.375 184.5,178.875 186,178.875 186,179.25 183.75,179.25 183.75,175.125"/>
</g>
</svg>